HIERARCHY
ROOT hip
{
  OFFSET 0 0 0
  CHANNELS 6 Xposition Yposition Zposition Zrotation Yrotation Xrotation
  JOINT abdomen
  {
    OFFSET 0 20.6881 -0.73152
    CHANNELS 3 Zrotation Xrotation Yrotation
    JOINT chest
    {
      OFFSET 0 11.7043 -0.48768
      CHANNELS 3 Zrotation Xrotation Yrotation
      JOINT neck
      {
        OFFSET 0 22.1894 -2.19456
        CHANNELS 3 Zrotation Xrotation Yrotation
        JOINT head
        {
          OFFSET -0.24384 7.07133 1.2192
          CHANNELS 3 Zrotation Xrotation Yrotation
          JOINT leftEye
          {
            OFFSET 4.14528 8.04674 8.04672
            CHANNELS 3 Zrotation Xrotation Yrotation
            End Site
            {
              OFFSET 1 0 0
            }
          }
          JOINT rightEye
          {
            OFFSET -3.6576 8.04674 8.04672
            CHANNELS 3 Zrotation Xrotation Yrotation
            End Site
            {
              OFFSET 1 0 0
            }
          }
        }
      }
      JOINT rCollar
      {
        OFFSET -2.68224 19.2634 -4.8768
        CHANNELS 3 Zrotation Xrotation Yrotation
        JOINT rShldr
        {
          OFFSET -8.77824 -1.95073 1.46304
          CHANNELS 3 Zrotation Xrotation Yrotation
          JOINT rForeArm
          {
            OFFSET -28.1742 -1.7115 0.48768
            CHANNELS 3 Zrotation Xrotation Yrotation
            JOINT rHand
            {
              OFFSET -22.5879 0.773209 7.07136
              CHANNELS 3 Zrotation Xrotation Yrotation
              JOINT rThumb1
              {
                OFFSET -1.2192 -0.487915 3.41376
                CHANNELS 3 Zrotation Xrotation Yrotation
                JOINT rThumb2
                {
                  OFFSET -3.37035 -0.52449 3.41376
                  CHANNELS 3 Zrotation Xrotation Yrotation
                  End Site
                  {
                    OFFSET -1.78271 -1.18214 1.43049
                  }
                }
              }
              JOINT rIndex1
              {
                OFFSET -7.75947 0.938293 5.60832
                CHANNELS 3 Zrotation Xrotation Yrotation
                JOINT rIndex2
                {
                  OFFSET -2.54057 -0.884171 1.56538
                  CHANNELS 3 Zrotation Xrotation Yrotation
                  End Site
                  {
                    OFFSET -1.62519 -0.234802 1.16502
                  }
                }
              }
              JOINT rMid1
              {
                OFFSET -8.24714 1.18213 3.41376
                CHANNELS 3 Zrotation Xrotation Yrotation
                JOINT rMid2
                {
                  OFFSET -3.10165 -0.590103 1.0647
                  CHANNELS 3 Zrotation Xrotation Yrotation
                  End Site
                  {
                    OFFSET -2.48547 -0.328903 0.83742
                  }
                }
              }
              JOINT rRing1
              {
                OFFSET -8.82822 0.546677 1.51678
                CHANNELS 3 Zrotation Xrotation Yrotation
                JOINT rRing2
                {
                  OFFSET -2.60934 -0.819778 -0.0198488
                  CHANNELS 3 Zrotation Xrotation Yrotation
                  End Site
                  {
                    OFFSET -2.33842 -0.294052 0.168128
                  }
                }
              }
              JOINT rPinky1
              {
                OFFSET -8.27202 -0.0477905 -0.4584
                CHANNELS 3 Zrotation Xrotation Yrotation
                JOINT rPinky2
                {
                  OFFSET -1.82734 -0.647385 -0.700984
                  CHANNELS 3 Zrotation Xrotation Yrotation
                  End Site
                  {
                    OFFSET -1.69225 -0.51767 -0.607171
                  }
                }
              }
            }
          }
        }
      }
      JOINT lCollar
      {
        OFFSET 2.68224 19.2634 -4.8768
        CHANNELS 3 Zrotation Xrotation Yrotation
        JOINT lShldr
        {
          OFFSET 8.77824 -1.95073 1.46304
          CHANNELS 3 Zrotation Xrotation Yrotation
          JOINT lForeArm
          {
            OFFSET 28.1742 -1.7115 0.48768
            CHANNELS 3 Zrotation Xrotation Yrotation
            JOINT lHand
            {
              OFFSET 22.5879 0.773209 7.07136
              CHANNELS 3 Zrotation Xrotation Yrotation
              JOINT lThumb1
              {
                OFFSET 1.2192 -0.487915 3.41376
                CHANNELS 3 Zrotation Xrotation Yrotation
                JOINT lThumb2
                {
                  OFFSET 3.37035 -0.52449 3.41376
                  CHANNELS 3 Zrotation Xrotation Yrotation
                  End Site
                  {
                    OFFSET 1.78271 -1.18214 1.43049
                  }
                }
              }
              JOINT lIndex1
              {
                OFFSET 7.75947 0.938293 5.60832
                CHANNELS 3 Zrotation Xrotation Yrotation
                JOINT lIndex2
                {
                  OFFSET 2.54057 -0.884171 1.56538
                  CHANNELS 3 Zrotation Xrotation Yrotation
                  End Site
                  {
                    OFFSET 1.62519 -0.234802 1.16502
                  }
                }
              }
              JOINT lMid1
              {
                OFFSET 8.24714 1.18213 3.41376
                CHANNELS 3 Zrotation Xrotation Yrotation
                JOINT lMid2
                {
                  OFFSET 3.10165 -0.590103 1.0647
                  CHANNELS 3 Zrotation Xrotation Yrotation
                  End Site
                  {
                    OFFSET 2.48547 -0.328903 0.83742
                  }
                }
              }
              JOINT lRing1
              {
                OFFSET 8.82822 0.546677 1.51678
                CHANNELS 3 Zrotation Xrotation Yrotation
                JOINT lRing2
                {
                  OFFSET 2.60934 -0.819778 -0.0198488
                  CHANNELS 3 Zrotation Xrotation Yrotation
                  End Site
                  {
                    OFFSET 2.33842 -0.294052 0.168128
                  }
                }
              }
              JOINT lPinky1
              {
                OFFSET 8.27202 -0.0477905 -0.4584
                CHANNELS 3 Zrotation Xrotation Yrotation
                JOINT lPinky2
                {
                  OFFSET 1.82734 -0.647385 -0.700984
                  CHANNELS 3 Zrotation Xrotation Yrotation
                  End Site
                  {
                    OFFSET 1.69225 -0.51767 -0.607171
                  }
                }
              }
            }
          }
        }
      }
    }
  }
  JOINT rButtock
  {
    OFFSET -8.77824 4.35084 1.2192
    CHANNELS 3 Zrotation Xrotation Yrotation
    JOINT rThigh
    {
      OFFSET 0 -1.70687 -2.19456
      CHANNELS 3 Zrotation Xrotation Yrotation
      JOINT rShin
      {
        OFFSET 0 -36.8199 0.73152
        CHANNELS 3 Zrotation Xrotation Yrotation
        JOINT rFoot
        {
          OFFSET 0.73152 -45.1104 -5.12064
          CHANNELS 3 Zrotation Xrotation Yrotation
          End Site
          {
            OFFSET -1.1221 -3.69964 12.103
          }
        }
      }
    }
  }
  JOINT lButtock
  {
    OFFSET 8.77824 4.35084 1.2192
    CHANNELS 3 Zrotation Xrotation Yrotation
    JOINT lThigh
    {
      OFFSET 0 -1.70687 -2.19456
      CHANNELS 3 Zrotation Xrotation Yrotation
      JOINT lShin
      {
        OFFSET 0 -36.8199 0.73152
        CHANNELS 3 Zrotation Xrotation Yrotation
        JOINT lFoot
        {
          OFFSET -0.73152 -45.1104 -5.12064
          CHANNELS 3 Zrotation Xrotation Yrotation
          End Site
          {
            OFFSET 1.1221 -3.69964 12.103
          }
        }
      }
    }
  }
}
MOTION
Frames:	8
Frame Time:	0.00833333
-44.9919 85.0966 23.4335 0.0 0.0 0.0 0.283892 -0.00291388 0.00816068 0.0784587 -0.00473293 0.0135944 6.56205e-17 0.0 -2.48481e-17 1.86361e-16 3.18055e-15 -8.07563e-17 -0.0 0.0 0.0 -0.0 0.0 0.0 9.81487e-17 1.35888e-17 1.49089e-16 2.75387e-15 6.21202e-17 5.96354e-16 1.59525e-14 6.55989e-15 3.18055e-15 1.4633e-13 5.60821e-14 -6.99722e-14 3.49019e-13 1.4018e-13 -1.17681e-13 5.95956e-13 2.38542e-13 -2.09121e-13 3.55825e-13 1.4074e-13 -1.30403e-13 7.73091 5.47488 0.417314 3.47973e-13 1.40342e-13 -1.24042e-13 2.90554 0.965183 0.102902 3.52458e-13 1.40044e-13 -1.21656e-13 10.2786 0.731801 0.0259123 3.45488e-13 1.42727e-13 -1.17681e-13 2.22167 -0.733487 -0.20892 1.24589e-18 1.3977e-17 -1.49089e-16 -1.1566e-15 4.41053e-16 -9.93923e-16 1.29707e-14 1.53064e-14 -2.8625e-14 1.51772e-13 5.16592e-14 -1.90833e-14 3.59007e-13 1.43467e-13 -1.20861e-13 6.29352e-13 2.48083e-13 -2.01965e-13 3.54234e-13 1.43523e-13 -1.11319e-13 -7.73091 5.47488 -0.417314 3.59701e-13 1.43523e-13 -1.20861e-13 -2.90554 0.965183 -0.102902 3.4765e-13 1.43721e-13 -1.18476e-13 -10.2786 0.731801 -0.0259123 3.65366e-13 1.46306e-13 -1.27222e-13 -2.22167 -0.733487 0.20892 -2.03217e-16 0.0 -3.88251e-19 0.668939 -3.85853 -0.0572488 -0.00341803 1.43793 -0.0274417 -0.455282 2.42105 0.100333 2.03217e-16 0.0 3.88251e-19 -0.234799 -2.7242 0.0299381 0.00662628 -0.616659 0.0579712 0.449412 3.34127 -0.117937
-39.7563 83.7392 20.2465 -1.0811 61.9108 2.5741 1.96882 0.600359 0.787249 0.015947 -0.395657 0.272472 -0.456613 -1.75267 -0.432212 1.92146 4.42543 -0.726681 -0.0 0.0 0.0 -0.0 0.0 0.0 5.63123e-15 -5.00828e-13 4.59052e-13 21.0017 5.41821 -1.07179 -5.30135 -2.67202 7.97461 3.58238e-05 -0.159197 -0.0223736 -1.53579e-09 -3.7473e-09 1.07356e-09 -2.65617e-09 -6.49234e-09 1.86133e-09 -1.53578e-09 -3.7473e-09 1.07355e-09 7.73091 5.47488 0.417314 -1.53579e-09 -3.7473e-09 1.07357e-09 2.90554 0.965183 0.102902 -1.53578e-09 -3.7473e-09 1.07356e-09 10.2786 0.731801 0.0259123 -1.53579e-09 -3.7473e-09 1.07356e-09 2.22167 -0.733487 -0.20892 5.55193e-15 -5.00827e-13 4.58753e-13 -21.7849 9.51716 -0.158584 5.08578 -2.51413 -7.7105 -0.168418 -9.12507 1.22449 -4.42565e-10 1.57724e-10 1.17659e-09 -7.94711e-10 2.73858e-10 2.02118e-09 -4.42569e-10 1.57724e-10 1.17659e-09 -7.73091 5.47488 -0.417314 -4.42564e-10 1.57725e-10 1.17659e-09 -2.90554 0.965183 -0.102902 -4.42573e-10 1.57725e-10 1.17659e-09 -10.2786 0.731801 -0.0259123 -4.42559e-10 1.57728e-10 1.17658e-09 -2.22167 -0.733487 0.20892 -2.03217e-16 0.0 -3.88251e-19 2.47209 -3.40046 3.62537 0.00270918 3.73118 0.0262536 -0.242437 3.19714 -5.01863 2.03217e-16 0.0 3.88251e-19 2.15127 -7.08168 -0.589881 0.00245896 7.93395 -0.0784384 0.509341 1.28743 0.619687
-39.7711 83.8369 20.293 -1.1247 62.0079 2.6602 3.73693 1.24288 1.6244 -0.0544068 -0.80281 0.550144 -0.978535 -3.60778 -0.898355 4.12587 9.10729 -1.52742 -0.0 0.0 0.0 -0.0 0.0 0.0 1.26046e-14 -1.05316e-12 9.58853e-13 43.434 11.1006 -2.24538 -10.0952 -5.31598 16.4458 -7.02591e-05 -0.317362 -0.044603 -3.22347e-09 -7.83989e-09 2.25375e-09 -5.57498e-09 -1.3583e-08 3.90752e-09 -3.22346e-09 -7.83989e-09 2.25374e-09 7.73091 5.47488 0.417314 -3.22347e-09 -7.8399e-09 2.25376e-09 2.90554 0.965183 0.102902 -3.22346e-09 -7.83989e-09 2.25375e-09 10.2786 0.731801 0.0259123 -3.22347e-09 -7.83989e-09 2.25375e-09 2.22167 -0.733487 -0.20892 1.25456e-14 -1.05315e-12 9.58552e-13 -44.7487 19.5981 -0.344221 9.72722 -5.01514 -15.8997 0.0991759 -18.7582 2.62677 -9.40236e-10 3.3192e-10 2.46481e-09 -1.68753e-09 5.76221e-10 4.23386e-09 -9.40239e-10 3.3192e-10 2.46482e-09 -7.73091 5.47488 -0.417314 -9.40235e-10 3.31922e-10 2.46481e-09 -2.90554 0.965183 -0.102902 -9.40241e-10 3.31922e-10 2.46481e-09 -10.2786 0.731801 -0.0259123 -9.4023e-10 3.31926e-10 2.4648e-09 -2.22167 -0.733487 0.20892 -2.03217e-16 0.0 -3.88251e-19 4.30927 -2.88721 7.52421 0.00442872 6.12374 0.0824243 0.155755 4.08741 -10.4102 2.03217e-16 0.0 3.88251e-19 4.56634 -11.6916 -1.24742 0.0439933 16.9989 -0.231603 0.630297 -0.891052 1.39771
-39.7857 83.8967 20.3212 -1.1497 62.1069 2.7411 5.28946 1.80556 2.34646 -0.0984772 -1.17741 0.790376 -1.44945 -5.25681 -1.3015 6.1089 13.2676 -2.23318 -0.0 0.0 0.0 -0.0 0.0 0.0 1.66974e-14 -1.50251e-12 1.37686e-12 63.6344 16.2314 -3.33402 -13.7292 -7.39624 24.1108 -0.000265533 -0.477591 -0.067123 -4.60806e-09 -1.12422e-08 3.22093e-09 -7.9697e-09 -1.94775e-08 5.58442e-09 -4.60806e-09 -1.12422e-08 3.22092e-09 7.73091 5.47488 0.417314 -4.60807e-09 -1.12422e-08 3.22094e-09 2.90554 0.965183 0.102902 -4.60806e-09 -1.12422e-08 3.22093e-09 10.2786 0.731801 0.0259123 -4.60807e-09 -1.12422e-08 3.22093e-09 2.22167 -0.733487 -0.20892 1.66533e-14 -1.50251e-12 1.37656e-12 -65.1781 28.5505 -0.53416 13.276 -6.9972 -23.2927 0.788705 -27.3219 4.08313 -1.32841e-09 4.72886e-10 3.53e-09 -2.38539e-09 8.21079e-10 6.06395e-09 -1.32842e-09 4.72886e-10 3.53e-09 -7.73091 5.47488 -0.417314 -1.32841e-09 4.72888e-10 3.53e-09 -2.90554 0.965183 -0.102902 -1.32842e-09 4.72889e-10 3.53e-09 -10.2786 0.731801 -0.0259123 -1.32841e-09 4.72893e-10 3.52999e-09 -2.22167 -0.733487 0.20892 -2.03217e-16 0.0 -3.88251e-19 5.90169 -2.45893 10.9814 0.00195453 8.31764 0.134879 0.593189 4.61761 -15.2837 2.03217e-16 0.0 3.88251e-19 6.63074 -15.7896 -1.88718 0.125891 25.0347 -0.385187 0.787846 -2.81814 2.0966
-39.8199 83.9415 20.3585 -1.258 62.2318 2.7293 6.33975 2.17004 2.77975 -0.0843326 -1.47071 0.936871 -1.73404 -6.3919 -1.54229 7.278 16.1333 -2.64763 -0.0 0.0 0.0 -0.0 0.0 0.0 1.35889e-14 -1.69444e-12 1.59038e-12 77.8037 20.006 -4.09958 -15.9584 -8.64856 29.5848 -0.000507061 -0.642981 -0.0903689 -5.23495e-09 -1.29187e-08 3.6556e-09 -9.05423e-09 -2.23817e-08 6.3381e-09 -5.23495e-09 -1.29187e-08 3.6556e-09 7.73091 5.47488 0.417314 -5.23496e-09 -1.29187e-08 3.65562e-09 2.90554 0.965183 0.102902 -5.23495e-09 -1.29187e-08 3.6556e-09 10.2786 0.731801 0.0259123 -5.23496e-09 -1.29187e-08 3.6556e-09 2.22167 -0.733487 -0.20892 1.35461e-14 -1.69444e-12 1.59008e-12 -79.4079 34.6828 -0.677038 15.461 -8.19595 -28.5429 1.58098 -33.2623 5.28936 -1.44286e-09 5.30777e-10 4.03761e-09 -2.59587e-09 9.22176e-10 6.93754e-09 -1.44286e-09 5.30777e-10 4.03761e-09 -7.73091 5.47488 -0.417314 -1.44286e-09 5.3078e-10 4.03761e-09 -2.90554 0.965183 -0.102902 -1.44286e-09 5.3078e-10 4.03761e-09 -10.2786 0.731801 -0.0259123 -1.44286e-09 5.30784e-10 4.0376e-09 -2.22167 -0.733487 0.20892 -2.03217e-16 0.0 -3.88251e-19 7.0188 -2.25355 13.3406 -0.00247427 10.0149 0.177038 0.749862 4.38093 -18.8313 2.03217e-16 0.0 3.88251e-19 8.01786 -18.6136 -2.4334 0.211089 30.4983 -0.505785 0.924484 -4.11923 2.59357
-39.9001 83.995 20.3855 -1.3194 62.3913 2.7887 6.6901 2.24893 2.77586 0.0303021 -1.6493 0.942783 -1.70458 -6.79954 -1.53023 7.09277 17.2055 -2.56934 -0.0 0.0 0.0 -0.0 0.0 0.0 -3.26995e-15 -1.48811e-12 1.51009e-12 83.2953 21.9482 -4.33452 -16.844 -9.15567 31.931 -0.000801647 -0.822126 -0.115549 -4.73697e-09 -1.21309e-08 3.29307e-09 -8.19396e-09 -2.10152e-08 5.70974e-09 -4.73697e-09 -1.21309e-08 3.29307e-09 7.73091 5.47488 0.417314 -4.73698e-09 -1.21309e-08 3.29309e-09 2.90554 0.965183 0.102902 -4.73697e-09 -1.21309e-08 3.29307e-09 10.2786 0.731801 0.0259123 -4.73698e-09 -1.21309e-08 3.29307e-09 2.22167 -0.733487 -0.20892 -3.33634e-15 -1.48811e-12 1.5098e-12 -85.0626 36.8339 -0.690712 16.2855 -8.64101 -30.6879 1.97395 -35.5667 5.81831 -1.09356e-09 4.60348e-10 3.73538e-09 -1.98397e-09 8.01673e-10 6.42344e-09 -1.09356e-09 4.60348e-10 3.7354e-09 -7.73091 5.47488 -0.417314 -1.09356e-09 4.6035e-10 3.73538e-09 -2.90554 0.965183 -0.102902 -1.09356e-09 4.60351e-10 3.73538e-09 -10.2786 0.731801 -0.0259123 -1.09355e-09 4.60354e-10 3.73538e-09 -2.22167 -0.733487 0.20892 -2.03217e-16 0.0 -3.88251e-19 7.52399 -2.37884 14.1686 -0.00607387 11.0876 0.205608 0.288811 2.98818 -20.5499 2.03217e-16 0.0 3.88251e-19 8.55037 -19.6271 -2.80118 0.247284 32.3295 -0.550265 0.978187 -4.53158 2.78731
-39.9885 84.0541 20.397 -1.3383 62.565 2.8681 6.54278 2.12435 2.46113 0.214637 -1.74602 0.848682 -1.44784 -6.6881 -1.33788 5.9253 16.9965 -2.13295 -0.0 0.0 0.0 -0.0 0.0 0.0 -2.97759e-14 -9.9911e-13 1.22029e-12 82.5306 22.584 -4.16253 -16.9045 -9.24981 32.019 -0.0012035 -1.01078 -0.14207 -3.43857e-09 -9.58509e-09 2.36358e-09 -5.9498e-09 -1.66024e-08 4.09847e-09 -3.43856e-09 -9.58509e-09 2.36357e-09 7.73091 5.47488 0.417314 -3.43857e-09 -9.5851e-09 2.36359e-09 2.90554 0.965183 0.102902 -3.43856e-09 -9.58509e-09 2.36358e-09 10.2786 0.731801 0.0259123 -3.43857e-09 -9.58509e-09 2.36358e-09 2.22167 -0.733487 -0.20892 -2.98832e-14 -9.99125e-13 1.22002e-12 -84.6084 36.1431 -0.599509 16.262 -8.65258 -30.5959 1.92474 -35.2881 5.75268 -4.16843e-10 2.98833e-10 2.85611e-09 -7.91317e-10 5.23852e-10 4.92043e-09 -4.16847e-10 2.98834e-10 2.85612e-09 -7.73091 5.47488 -0.417314 -4.16841e-10 2.98835e-10 2.8561e-09 -2.90554 0.965183 -0.102902 -4.16845e-10 2.98836e-10 2.8561e-09 -10.2786 0.731801 -0.0259123 -4.16839e-10 2.98838e-10 2.8561e-09 -2.22167 -0.733487 0.20892 -2.03217e-16 0.0 -3.88251e-19 7.59777 -2.74023 13.9035 -0.00810741 11.7108 0.22419 -0.623788 0.792918 -20.9854 2.03217e-16 0.0 3.88251e-19 8.50348 -19.3507 -3.02971 0.23501 31.5676 -0.531653 0.961499 -4.31043 2.76385
-40.0837 84.117 20.435 -1.5608 62.7564 2.7065 6.21414 1.93263 2.07366 0.390775 -1.81153 0.729381 -1.14628 -6.3829 -1.1092 4.5307 16.253 -1.632 -0.0 0.0 0.0 -0.0 0.0 0.0 -5.42708e-14 -4.57619e-13 8.58732e-13 79.2835 22.6169 -3.81748 -16.6197 -9.16344 31.1455 -0.00170519 -1.1928 -0.167661 -1.92252e-09 -6.41344e-09 1.29e-09 -3.32893e-09 -1.11055e-08 2.23729e-09 -1.92251e-09 -6.41344e-09 1.28999e-09 7.73091 5.47488 0.417314 -1.92252e-09 -6.41344e-09 1.29e-09 2.90554 0.965183 0.102902 -1.92252e-09 -6.41344e-09 1.29e-09 10.2786 0.731801 0.0259123 -1.92253e-09 -6.41344e-09 1.29e-09 2.22167 -0.733487 -0.20892 -5.4417e-14 -4.57643e-13 8.58473e-13 -81.6625 34.3693 -0.493409 15.9203 -8.51011 -29.6421 1.70064 -33.9831 5.45157 2.62001e-10 1.20108e-10 1.79274e-09 4.09549e-10 2.1564e-10 3.09965e-09 2.61996e-10 1.20111e-10 1.79277e-09 -7.73091 5.47488 -0.417314 2.62004e-10 1.2011e-10 1.79274e-09 -2.90554 0.965183 -0.102902 2.61997e-10 1.20112e-10 1.79274e-09 -10.2786 0.731801 -0.0259123 2.62005e-10 1.20112e-10 1.79273e-09 -2.22167 -0.733487 0.20892 -2.03217e-16 0.0 -3.88251e-19 7.49573 -3.16751 13.1945 -0.0088825 12.0411 0.236328 -1.57592 -1.47296 -20.8813 2.03217e-16 0.0 3.88251e-19 8.2378 -18.6078 -3.22101 0.2059 29.8195 -0.490536 0.92293 -3.85897 2.6792
